<?xml version="1.0" encoding="UTF-8"?>
<svg width="512px" height="512px" viewBox="0 0 512 512" version="1.1" xmlns="http://www.w3.org/2000/svg">
    <title>Football (Soccer) Icon</title>
    <g stroke="none" stroke-width="1" fill="none" fill-rule="evenodd">
        <circle fill="#000000" cx="256" cy="256" r="246"></circle>
        <circle fill="#FFFFFF" cx="256" cy="256" r="220"></circle>
        <g transform="translate(36, 36)">
            <path d="M220,0 C341.5,0 440,98.5 440,220 C440,341.5 341.5,440 220,440 C98.5,440 0,341.5 0,220 C0,98.5 98.5,0 220,0 Z" fill="#000000"></path>
            <path d="M220,25 C327.5,25 415,112.5 415,220 C415,327.5 327.5,415 220,415 C112.5,415 25,327.5 25,220 C25,112.5 112.5,25 220,25 Z" fill="#FFFFFF"></path>
            <path d="M220,60 C220,60 245,115 245,220 C245,325 220,380 220,380 C220,380 195,325 195,220 C195,115 220,60 220,60 Z" fill="#000000"></path>
            <path d="M60,220 C60,220 115,195 220,195 C325,195 380,220 380,220 C380,220 325,245 220,245 C115,245 60,220 60,220 Z" fill="#000000"></path>
            <path d="M94,94 C94,94 137,137 220,220 C303,303 346,346 346,346 C346,346 303,303 220,220 C137,137 94,94 94,94 Z" fill="#000000"></path>
            <path d="M94,346 C94,346 137,303 220,220 C303,137 346,94 346,94 C346,94 303,137 220,220 C137,303 94,346 94,346 Z" fill="#000000"></path>
        </g>
    </g>
</svg> 